<?xml version="1.0" standalone="no"?>
<!DOCTYPE svg PUBLIC "-//W3C//DTD SVG 20010904//EN"
 "http://www.w3.org/TR/2001/REC-SVG-20010904/DTD/svg10.dtd">
<svg version="1.0" xmlns="http://www.w3.org/2000/svg"
 width="512.000000pt" height="512.000000pt" viewBox="0 0 512.000000 512.000000"
 preserveAspectRatio="xMidYMid meet">

<g transform="translate(0.000000,512.000000) scale(0.100000,-0.100000)"
fill="#f75d83" stroke="none">
<path d="M1006 4895 c-75 -26 -126 -81 -146 -155 -7 -25 -9 -772 -8 -2201 l3
-2164 22 -40 c41 -77 103 -115 187 -115 30 0 65 4 78 9 13 5 296 186 628 402
751 488 720 469 788 469 29 0 67 -7 85 -16 18 -9 324 -206 682 -437 l649 -422
67 -3 c95 -6 157 29 202 113 l22 40 0 2185 c0 2114 -1 2186 -19 2220 -26 49
-55 79 -101 103 l-40 22 -1530 2 c-1296 2 -1536 0 -1569 -12z m2458 -536 c60
-28 71 -122 20 -170 l-26 -24 -898 0 -898 0 -26 24 c-50 47 -40 141 17 169 32
15 1777 16 1811 1z"/>
</g>
</svg>
