<?xml version="1.0" standalone="no"?>
<!DOCTYPE svg PUBLIC "-//W3C//DTD SVG 20010904//EN"
 "http://www.w3.org/TR/2001/REC-SVG-20010904/DTD/svg10.dtd">
<svg version="1.0" xmlns="http://www.w3.org/2000/svg"
 width="512.000000pt" height="512.000000pt" viewBox="0 0 512.000000 512.000000"
 preserveAspectRatio="xMidYMid meet">

<g transform="translate(0.000000,512.000000) scale(0.100000,-0.100000)"
fill="#ccc" stroke="none">
<path d="M2640 4760 l0 -200 -80 0 -80 0 0 120 0 120 -80 0 -80 0 0 -133 0
-133 -72 -23 c-266 -85 -489 -274 -613 -521 -84 -167 -115 -309 -115 -526 l0
-124 66 -131 c36 -72 64 -132 62 -133 -2 -1 -25 -19 -53 -41 -216 -170 -366
-353 -475 -580 -179 -373 -208 -809 -78 -1199 182 -548 645 -953 1223 -1068
157 -32 433 -32 590 0 654 130 1135 610 1276 1272 30 140 33 437 6 575 -84
432 -319 798 -665 1041 -2 1 26 61 62 133 l66 131 0 127 c0 213 -33 361 -118
528 -53 104 -96 164 -185 254 -121 123 -262 210 -424 262 l-73 23 0 213 0 213
-80 0 -80 0 0 -200z m135 -388 c321 -87 551 -317 637 -637 10 -38 21 -121 25
-182 l6 -113 -883 0 -883 0 6 113 c6 104 22 194 48 260 l11 27 252 0 252 0 24
-52 c29 -64 89 -126 155 -158 41 -20 65 -25 135 -25 100 0 160 24 225 90 66
65 90 125 90 225 0 100 -24 160 -90 226 -66 66 -125 89 -225 89 -70 0 -94 -4
-135 -24 -65 -33 -126 -95 -155 -159 l-24 -52 -208 0 c-114 0 -208 4 -208 8 0
5 26 40 59 78 131 156 337 272 544 305 79 12 263 2 342 -19z m-154 -308 c28
-8 80 -71 89 -108 25 -110 -76 -211 -186 -186 -46 11 -102 64 -114 110 -16 62
14 145 62 171 47 25 89 29 149 13z m729 -864 l-40 -80 -750 0 -750 0 -40 80
-40 80 830 0 830 0 -40 -80z m-1515 -297 c-34 -270 -239 -472 -508 -500 l-59
-6 17 34 c85 166 241 349 404 473 61 46 80 56 113 56 l40 0 -7 -57z m477 -15
c-4 -91 -32 -213 -72 -315 -96 -249 -324 -477 -573 -573 -154 -60 -351 -90
-478 -73 l-55 8 11 70 c7 39 23 107 35 153 l22 82 82 0 c114 0 207 22 311 74
102 51 176 109 242 187 89 108 162 295 163 417 l0 42 158 0 158 0 -4 -72z
m798 67 c0 -3 -11 -27 -24 -53 -13 -26 -36 -82 -51 -124 -24 -68 -30 -77 -49
-73 -11 2 -129 25 -261 51 -132 26 -243 50 -247 53 -3 3 -4 39 -1 79 l6 72
313 0 c173 0 314 -2 314 -5z m296 -36 c32 -23 82 -61 110 -85 l50 -43 -43 -88
c-190 -385 -1 -848 406 -994 l64 -23 -6 -75 c-9 -111 -37 -231 -54 -231 -26 0
-162 49 -226 81 -206 105 -379 282 -477 492 -139 297 -124 667 38 944 44 77
57 78 138 22z m348 -357 c131 -196 207 -402 234 -634 5 -41 5 -68 -1 -68 -5 0
-41 17 -80 37 -256 135 -365 453 -247 720 10 23 21 43 24 43 3 0 34 -44 70
-98z m-1044 33 c129 -25 242 -48 250 -51 13 -3 15 -23 12 -118 -10 -303 102
-615 298 -829 l51 -56 -177 -203 c-98 -112 -179 -205 -180 -207 -2 -2 -40 20
-85 49 -215 138 -440 198 -698 187 -75 -4 -164 -13 -198 -20 -56 -13 -63 -13
-68 2 -18 45 -165 486 -165 495 0 6 38 30 84 54 266 136 477 381 581 675 21
60 31 76 44 73 9 -3 122 -26 251 -51z m-1030 -1058 l87 -257 -62 -30 c-95 -45
-205 -121 -285 -196 -85 -80 -74 -85 -150 71 -87 177 -132 346 -146 540 l-7
100 164 1 c111 1 185 6 229 16 36 9 69 15 74 14 5 -1 48 -118 96 -259z m1849
-162 c92 -58 207 -111 304 -139 31 -9 57 -19 57 -21 0 -14 -62 -139 -100 -200
-90 -146 -199 -272 -330 -377 -47 -37 -87 -68 -91 -68 -3 0 -16 26 -29 58 -49
119 -128 245 -210 335 l-52 57 179 204 c98 113 180 205 182 206 2 0 43 -25 90
-55z m-1047 -199 c302 -77 558 -288 688 -569 60 -130 62 -119 -27 -159 -71
-33 -214 -82 -218 -76 -1 2 -12 31 -24 64 -68 187 -246 354 -448 422 -70 24
-93 26 -223 26 -130 0 -153 -2 -223 -26 -102 -34 -204 -96 -278 -168 l-60 -59
-72 63 c-40 35 -90 85 -111 111 l-39 47 59 59 c145 147 360 254 580 289 98 15
286 4 396 -24z m-123 -461 c153 -36 296 -148 364 -285 21 -40 37 -78 37 -85 0
-8 -25 -14 -67 -18 -215 -21 -459 14 -659 93 -86 35 -180 81 -209 104 -20 16
-19 17 30 61 134 121 328 171 504 130z"/>
<path d="M3040 3680 l0 -80 80 0 80 0 0 80 0 80 -80 0 -80 0 0 -80z"/>
<path d="M1155 3068 c-259 -280 -429 -627 -491 -1004 -27 -166 -24 -576 5
-623 7 -11 22 -11 81 -1 l72 12 -9 87 c-14 144 -8 405 12 516 59 337 212 650
433 885 39 43 72 82 72 87 0 5 -24 32 -53 61 l-54 53 -68 -73z"/>
<path d="M4420 2004 c-8 -1 -36 -6 -62 -9 -47 -6 -48 -7 -48 -43 0 -20 3 -54
6 -74 l7 -38 78 0 79 0 -6 73 c-8 103 -7 101 -54 91z"/>
<path d="M4316 1638 c-21 -167 -30 -224 -51 -308 -60 -243 -175 -472 -336
-676 -54 -68 -275 -284 -290 -284 -9 0 15 -38 70 -109 l19 -25 69 56 c306 253
544 643 634 1042 17 75 47 284 49 334 0 8 -22 12 -79 12 l-80 0 -5 -42z"/>
</g>
</svg>
