<?xml version="1.0" standalone="no"?>
<!DOCTYPE svg PUBLIC "-//W3C//DTD SVG 20010904//EN"
 "http://www.w3.org/TR/2001/REC-SVG-20010904/DTD/svg10.dtd">
<svg version="1.0" xmlns="http://www.w3.org/2000/svg"
 width="512.000000pt" height="512.000000pt" viewBox="0 0 512.000000 512.000000"
 preserveAspectRatio="xMidYMid meet">

<g transform="translate(0.000000,512.000000) scale(0.100000,-0.100000)"
fill="#000000" stroke="none">
<path d="M122 4997 l-122 -122 0 -85 0 -84 67 -68 67 -68 28 27 28 27 50 -49
c28 -27 50 -54 50 -59 0 -5 -10 -20 -22 -33 l-22 -24 949 -949 950 -950 -252
-252 -252 -252 -36 34 -35 34 -155 -154 -155 -155 42 -42 42 -43 -39 -40 -39
-40 -43 42 -43 42 -123 -122 -122 -122 -68 67 -67 68 -193 -193 -192 -193 68
-66 68 -66 -227 -228 -228 -228 27 -29 27 -28 -75 -74 -75 -74 0 -66 0 -65
158 -158 157 -157 65 0 66 0 74 75 74 75 28 -27 29 -27 342 342 342 342 -53
52 -52 53 -290 -290 -290 -290 -172 173 -173 172 438 437 437 438 172 -172
173 -173 -95 -95 -95 -95 53 -52 52 -53 147 147 148 148 -43 43 -42 43 40 39
40 39 43 -42 42 -42 155 155 154 155 -34 35 -34 35 109 110 108 109 -47 56
-48 55 -116 -109 -117 -110 -98 97 -97 97 252 252 253 253 100 -100 100 -100
-88 -88 -87 -87 52 -53 53 -52 87 87 88 88 252 -252 252 -252 -34 -36 -34 -35
154 -155 155 -155 42 42 43 42 40 -39 40 -39 -42 -43 -42 -43 122 -123 122
-122 -67 -68 -68 -67 193 -193 193 -192 66 68 66 68 228 -227 228 -228 29 27
28 27 74 -75 74 -75 66 0 65 0 158 158 157 157 0 65 0 66 -75 74 -75 74 27 28
27 29 -342 342 -342 342 -52 -53 -53 -52 290 -290 290 -290 -173 -172 -172
-173 -437 438 -438 437 172 172 173 173 95 -95 95 -95 52 53 53 52 -147 147
-148 148 -43 -43 -43 -42 -39 40 -39 40 42 43 42 42 -155 155 -155 154 -35
-34 -35 -34 -110 109 -109 109 -24 -22 c-13 -12 -28 -22 -33 -22 -5 0 -32 23
-59 50 l-49 50 27 27 27 28 -87 87 -88 88 1073 1073 1072 1072 0 85 0 85 -123
123 -122 122 -85 0 -86 0 -67 -68 -67 -68 55 -54 55 -54 48 47 c26 26 57 47
68 47 26 0 174 -149 174 -175 0 -13 -365 -385 -1053 -1073 l-1052 -1052 -98
98 -97 97 950 950 c523 523 950 953 950 957 0 3 -25 28 -56 54 l-55 48 -950
-950 -949 -949 -1073 1073 -1072 1072 -85 0 -85 0 -123 -123z m1231 -1115
l577 -577 -55 -55 -55 -55 -582 582 -583 583 50 50 c27 27 54 50 60 50 5 0
270 -260 588 -578z m699 -699 c26 -26 48 -52 48 -59 0 -6 -24 -32 -53 -57
l-54 -46 -51 51 -50 51 46 54 c25 29 50 53 56 53 6 0 32 -21 58 -47z m178
-288 l-55 -55 -55 55 -55 55 55 55 55 55 55 -55 55 -55 -55 -55z m530 -336 c0
-4 -45 -49 -101 -100 l-100 -92 -97 96 -97 97 100 100 100 100 97 -97 c54 -54
98 -101 98 -104z m-1015 -819 l169 -170 -44 -45 c-24 -25 -49 -45 -55 -45 -13
0 -335 322 -335 335 0 10 80 95 90 95 3 0 82 -76 175 -170z m1853 127 c23 -23
42 -47 42 -52 0 -13 -322 -335 -335 -335 -6 0 -31 20 -55 45 l-44 45 169 170
c93 94 172 170 175 170 3 0 25 -19 48 -43z m-2018 -452 l-40 -40 -82 82 -82
83 39 40 39 40 83 -82 83 -83 -40 -40z m2160 131 c0 -6 -36 -47 -80 -91 l-80
-79 -40 39 -40 39 81 82 82 82 39 -30 c21 -17 38 -36 38 -42z m-2922 -157 c1
-8 -33 -50 -77 -93 -70 -69 -82 -78 -96 -66 -14 12 -7 23 67 97 80 80 100 92
106 62z m3006 -648 c69 -70 78 -82 66 -96 -12 -14 -23 -7 -96 66 -64 64 -81
86 -72 96 6 7 13 13 17 13 4 0 42 -36 85 -79z m-3452 -368 c60 -59 108 -112
108 -118 0 -6 -23 -33 -50 -60 l-50 -49 -115 114 -115 115 52 52 c29 29 55 53
57 53 3 0 54 -48 113 -107z m4553 57 l50 -50 -118 -117 -117 -118 -50 50 c-27
27 -50 54 -50 59 0 14 212 226 225 226 6 0 33 -23 60 -50z"/>
<path d="M1992 3837 l-52 -53 53 -52 53 -52 52 53 52 53 -53 52 -53 52 -52
-53z"/>
<path d="M2165 3660 l-50 -50 53 -53 52 -52 52 52 53 53 -50 50 c-27 27 -52
50 -55 50 -3 0 -28 -23 -55 -50z"/>
<path d="M2345 3480 l-50 -50 53 -53 52 -52 52 52 53 53 -50 50 c-27 27 -52
50 -55 50 -3 0 -28 -23 -55 -50z"/>
<path d="M3755 3150 l-50 -50 53 -53 52 -52 52 52 53 53 -50 50 c-27 27 -52
50 -55 50 -3 0 -28 -23 -55 -50z"/>
<path d="M3582 2977 l-52 -53 53 -52 53 -52 47 48 c26 26 47 52 47 58 0 5 -22
31 -48 57 l-48 47 -52 -53z"/>
<path d="M3402 2797 l-52 -53 48 -47 c26 -26 52 -47 58 -47 5 0 31 22 57 48
l47 48 -53 52 -53 52 -52 -53z"/>
<path d="M3225 2620 l-50 -50 53 -53 52 -52 52 52 53 53 -50 50 c-27 27 -52
50 -55 50 -3 0 -28 -23 -55 -50z"/>
<path d="M4032 997 l-52 -53 53 -52 53 -52 52 53 52 53 -53 52 -53 52 -52 -53z"/>
<path d="M4205 820 l-49 -50 54 -55 54 -55 48 47 c26 26 48 52 48 58 0 10 -91
105 -101 105 -2 0 -27 -23 -54 -50z"/>
<path d="M4385 640 l-50 -50 53 -53 52 -52 52 52 53 53 -50 50 c-27 27 -52 50
-55 50 -3 0 -28 -23 -55 -50z"/>
</g>
</svg>
