<?xml version="1.0" standalone="no"?>
<!DOCTYPE svg PUBLIC "-//W3C//DTD SVG 20010904//EN"
 "http://www.w3.org/TR/2001/REC-SVG-20010904/DTD/svg10.dtd">
<svg version="1.0" xmlns="http://www.w3.org/2000/svg"
 width="512.000000pt" height="512.000000pt" viewBox="0 0 512.000000 512.000000"
 preserveAspectRatio="xMidYMid meet">

<g transform="translate(0.000000,512.000000) scale(0.100000,-0.100000)"
fill="#fff" stroke="none">
<path d="M2335 4950 c-480 -54 -901 -224 -1263 -509 -412 -324 -718 -797 -841
-1301 -53 -218 -66 -331 -66 -580 0 -313 40 -550 137 -815 307 -839 1036
-1430 1927 -1562 142 -21 493 -24 626 -5 283 40 516 110 763 228 140 68 142
70 142 204 l0 110 120 0 120 0 0 80 0 80 -120 0 -120 0 0 80 0 80 360 0 360 0
0 80 0 80 -302 0 -303 0 80 80 80 80 198 0 c197 0 198 0 222 25 23 22 25 32
25 120 l0 95 160 0 160 0 0 80 0 80 -160 0 -161 0 3 87 3 87 193 36 c120 23
198 42 208 52 49 49 88 487 65 734 -10 116 -28 234 -52 344 -6 31 -21 63 -35
77 -23 23 -26 23 -247 23 l-225 0 -5 23 c-3 12 -9 48 -12 80 l-7 57 136 0 136
0 0 80 0 80 -149 0 -148 0 -13 92 c-7 51 -15 99 -18 106 -2 7 -41 38 -86 68
l-81 54 128 0 127 0 0 80 0 80 -247 0 -248 0 -60 40 -60 40 -172 0 -173 0 0
80 0 80 200 0 200 0 0 80 0 80 -200 0 -200 0 0 183 c-1 196 -2 202 -55 229
-71 36 -300 95 -485 124 -115 18 -454 26 -565 14z m542 -175 c125 -18 251 -47
341 -76 l62 -21 0 -354 0 -355 25 -24 c24 -25 25 -25 226 -25 l203 0 213 -142
c137 -92 215 -150 218 -163 3 -11 20 -132 40 -268 19 -136 39 -256 45 -267 19
-36 44 -40 273 -40 l224 0 7 -37 c33 -197 38 -254 39 -428 1 -165 -11 -328
-29 -402 -6 -24 2 -22 -254 -69 -206 -39 -190 -12 -190 -329 l0 -255 -177 0
-177 0 -183 -183 -183 -183 0 -287 0 -288 -102 -49 c-188 -89 -400 -152 -628
-186 -157 -24 -463 -24 -620 0 -367 55 -716 196 -1005 405 l-69 51 212 0 212
0 0 80 0 80 -304 0 -304 0 -62 67 c-73 78 -165 192 -221 274 l-40 59 906 0
905 0 0 -200 0 -200 -200 0 -200 0 0 -80 0 -80 680 0 680 0 0 80 0 80 -400 0
-400 0 0 200 0 200 480 0 480 0 0 80 0 80 -160 0 -160 0 0 200 0 200 440 0
440 0 0 80 0 80 -1040 0 -1040 0 0 200 0 200 1120 0 1120 0 0 80 0 80 -360 0
-360 0 0 200 0 200 240 0 240 0 0 80 0 80 -720 0 -720 0 0 -80 0 -80 400 0
400 0 0 -200 0 -200 -1558 0 -1559 0 4 58 c5 74 20 199 34 279 l11 63 414 0
414 0 0 80 0 80 -390 0 c-242 0 -390 4 -390 10 0 17 66 194 110 293 l43 97
313 0 314 0 0 80 0 80 -265 0 -266 0 40 59 c56 82 148 196 221 274 l62 67 264
0 264 0 0 80 0 80 -172 0 -173 0 70 51 c311 227 722 381 1115 419 126 12 383
4 517 -15z m-957 -2495 l0 -200 -280 0 -280 0 0 -80 0 -80 880 0 880 0 0 -200
0 -200 -1273 0 -1273 0 -44 98 c-43 97 -110 274 -110 292 0 6 90 10 230 10
l230 0 0 80 0 80 -254 0 -254 0 -11 63 c-14 80 -29 205 -34 280 l-4 57 799 0
798 0 0 -200z"/>
<path d="M1680 4240 l0 -80 80 0 80 0 0 80 0 80 -80 0 -80 0 0 -80z"/>
<path d="M2000 4240 l0 -80 560 0 560 0 0 80 0 80 -560 0 -560 0 0 -80z"/>
<path d="M1835 3981 c-133 -39 -244 -108 -336 -210 -114 -125 -169 -255 -177
-414 -9 -175 36 -297 147 -407 103 -101 224 -150 372 -150 300 0 585 229 664
535 19 75 19 214 0 288 -45 175 -187 316 -360 362 -80 20 -233 19 -310 -4z
m322 -176 c75 -33 134 -93 171 -173 23 -50 27 -69 26 -152 -1 -109 -22 -181
-80 -268 -104 -157 -261 -246 -434 -246 -177 1 -302 93 -346 256 -64 241 121
528 387 603 84 23 200 15 276 -20z"/>
<path d="M1840 3400 l0 -80 80 0 80 0 0 80 0 80 -80 0 -80 0 0 -80z"/>
<path d="M2720 3680 l0 -80 520 0 520 0 0 80 0 80 -520 0 -520 0 0 -80z"/>
<path d="M4480 2560 l0 -80 80 0 80 0 0 80 0 80 -80 0 -80 0 0 -80z"/>
<path d="M1760 880 l0 -80 80 0 80 0 0 80 0 80 -80 0 -80 0 0 -80z"/>
<path d="M1040 2000 l0 -80 80 0 80 0 0 80 0 80 -80 0 -80 0 0 -80z"/>
<path d="M3600 4640 l0 -80 80 0 80 0 0 80 0 80 -80 0 -80 0 0 -80z"/>
<path d="M4560 3760 l0 -80 80 0 80 0 0 80 0 80 -80 0 -80 0 0 -80z"/>
<path d="M4160 800 l0 -80 80 0 80 0 0 80 0 80 -80 0 -80 0 0 -80z"/>
</g>
</svg>
